<svg width="28" height="33" viewBox="0 0 28 33" fill="none" xmlns="http://www.w3.org/2000/svg">
<path d="M18.2436 25.9411L18.196 25.8914L18.1326 25.918C16.6264 26.5509 14.9778 26.8999 13.25 26.8999C6.1316 26.8999 0.35 20.9738 0.35 13.6666C0.35 6.35941 6.1316 0.433252 13.25 0.433252C20.3684 0.433252 26.15 6.35941 26.15 13.6666C26.15 17.9948 24.1212 21.8392 20.9872 24.254L20.8995 24.3216L20.9756 24.402L26.947 30.7132L24.8577 32.856L18.2436 25.9411ZM2.75 13.6666C2.75 19.5994 7.4594 24.4333 13.25 24.4333C19.0415 24.4333 23.8429 19.4251 23.8429 13.4933C23.8429 7.55712 19.0373 2.89992 13.25 2.89992C7.4594 2.89992 2.75 7.73376 2.75 13.6666Z" stroke="black" stroke-width="0.2"/>
<path d="M11.144 10.9866C10.962 11.3199 10.819 11.7066 10.754 12.1466C10.689 12.5866 10.65 13.0266 10.65 13.4932V13.8532C10.65 14.2932 10.689 14.7466 10.754 15.1866C10.819 15.6266 10.962 16.0266 11.144 16.3599C11.326 16.6932 11.586 16.9732 11.911 17.1866C12.21 17.3866 12.6 17.4799 13.068 17.4932C13.341 17.4799 13.601 17.4532 13.848 17.3599C14.108 17.2666 14.329 17.1332 14.524 16.9599C14.719 16.7866 14.8751 16.5866 14.9921 16.3466C15.1091 16.1066 15.174 15.8532 15.187 15.5732H17.514C17.501 16.1199 17.358 16.6266 17.1241 17.1066C16.89 17.5866 16.565 17.9999 16.162 18.3599C15.759 18.7199 15.291 18.9999 14.758 19.1999C14.225 19.3999 13.653 19.5066 13.042 19.5066C12.197 19.5066 11.456 19.3466 10.832 19.0532C10.208 18.7599 9.68805 18.3466 9.27205 17.8399C8.85605 17.3332 8.54405 16.7332 8.34905 16.0399C8.15405 15.3466 8.05005 14.6266 8.05005 13.8532V13.4932C8.05005 12.7199 8.16705 11.9999 8.36205 11.3066C8.55705 10.6132 8.86905 10.0132 9.28505 9.49323C9.70105 8.97323 10.221 8.57323 10.845 8.26657C11.469 7.9599 12.2101 7.81323 13.055 7.81323C13.7181 7.81323 14.316 7.90657 14.862 8.1199C15.408 8.33323 15.876 8.62656 16.266 8.9999C16.656 9.37323 16.955 9.82657 17.176 10.3466C17.397 10.8666 17.514 11.4399 17.54 12.0666H15.213C15.2 11.7732 15.148 11.4799 15.031 11.2132C14.914 10.9466 14.771 10.7066 14.589 10.5066C14.407 10.3066 14.173 10.1466 13.913 10.0266C13.666 9.9199 13.393 9.86657 13.094 9.85323C12.613 9.86657 12.223 9.9599 11.911 10.1599C11.586 10.3732 11.326 10.6532 11.144 10.9866Z" fill="black"/>
</svg>
