<svg width="35" height="35" viewBox="0 0 35 35" fill="none" xmlns="http://www.w3.org/2000/svg">
<path d="M17.5001 3C9.46466 3 3 9.46457 3 17.5C3 25.5354 9.46466 32 17.5001 32C25.5355 32 32 25.5354 32 17.5C32 9.46457 25.5355 3 17.5001 3ZM17.5001 29.1667C11.0688 29.1667 5.83341 23.9312 5.83341 17.5C5.83341 11.0687 11.0688 5.83332 17.5001 5.83332C23.9313 5.83332 29.1667 11.0687 29.1667 17.5C29.1667 23.9312 23.9313 29.1667 17.5001 29.1667Z" fill="black"/>
<path d="M16.0417 16.0417L16.0001 13C15.9584 12 17.0563 11.5029 17.5001 11.5C18.0001 11.4968 19.0001 12 19.0001 13L18.9584 16.0417H22.0001C23.0001 16 23.5062 17.0555 23.5001 17.5C23.4939 17.9445 23.0001 19 22.0001 18.9583H18.9584V22C19.0001 23.0231 17.9522 23.5031 17.5001 23.5C17.0632 23.497 15.9584 23.0231 16.0001 22L16.0417 18.9583H13.5001C12.0001 18.9583 11.528 17.9444 11.5001 17.5C11.4721 17.0556 12.0001 16 13.5001 16L16.0417 16.0417Z" fill="black"/>
</svg>
