<svg width="64" height="64" viewBox="0 0 64 64" fill="none" xmlns="http://www.w3.org/2000/svg">
<circle cx="32" cy="32" r="32" fill="#CF0015"/>
<path d="M34.1256 24.625C34.1256 22.875 32.3758 21.9944 31.5009 22C30.7243 22.005 28.8032 22.875 28.8761 24.625L28.949 29.9479L24.5015 29.875C21.8768 29.875 20.9529 31.7223 21.0018 32.5C21.0508 33.2776 21.8768 35.0521 24.5015 35.0521H28.949L28.8761 40.375C28.8032 42.1653 30.7364 42.9948 31.5009 43C32.292 43.0054 34.1256 42.1653 34.0527 40.375V35.0521H39.3751C41.125 35.125 41.9891 33.2778 41.9999 32.5C42.0107 31.7222 41.125 29.875 39.3751 29.9479H34.0527L34.1256 24.625Z" fill="white"/>
</svg>
