<svg xmlns="http://www.w3.org/2000/svg" viewBox="0 0 2014.04 2040"><g id="Pulpo"><path d="M1234.73,234c-569.92,63.67-741.1,862.62-288.37,1176.74,47.86,31.5,153,96.86,288.37,96.86C1958.82,1486.79,1928,278.62,1234.73,234Zm-2.26,1094.47c-445.66-.12-445.62-915.55,0-915.58C1678.14,413,1678.08,1328.45,1232.47,1328.47Z" transform="translate(-210.96 -234)"/><path d="M1449.92,870.8c0,201.73-98.62,365.28-220.27,365.28s-220.27-163.55-220.27-365.28S1108,505.52,1229.65,505.52c46.8,0,90.19,24.21,125.86,65.47-1.67,0-3.36-.08-5-.08-54.93,0-99.46,27.23-99.46,60.82s44.53,60.82,99.46,60.82c25.33,0,48.46-5.79,66-15.34C1437.67,733.34,1449.92,799.7,1449.92,870.8Z" transform="translate(-210.96 -234)"/><path d="M1176.14,1330.31c51.94,20.75,62.53,170.59-6.2,279.58-98.59,156.31-340,196.35-460.87,195.41-154.79-1.2-232.19-1.79-265.35-12.83-12.87-4.29-51.11-18-88.45-4.28-23.43,8.59-50.07,29.29-54.31,55.63-7.9,49.11,66.66,89.54,60.52,97-130.6-7.27-207.17-161.32-99.3-285.28,61.44-74.63,157.78-91.94,342.92-122.67,187.55-31.13,200.28-7,293.28-39.94C1074.7,1430.54,1125.08,1309.92,1176.14,1330.31Z" transform="translate(-210.96 -234)"/><path d="M1259.81,1330.43c-32,12.78-38.54,68.4-42,101.38-33.21,310.71,438.86,386.26,509.13,373.59,154.78-1.18,232.18-1.78,265.34-12.82,12.87-4.28,51.11-18,88.45-4.28,23.43,8.6,50.07,29.29,54.31,55.63,7.91,49.12-66.66,89.54-60.52,97,130.47-7.24,207.25-161.24,99.3-285.28C2112.33,1581,2016,1563.71,1830.85,1533c-187.54-31.13-200.27-7-293.28-39.94C1361.25,1430.65,1310.87,1310,1259.81,1330.43Z" transform="translate(-210.96 -234)"/><path d="M1249.29,1385.87c-21.18,18.24-92,83.8-105.58,189.17-5.51,42.87-18.79,110.35,17.1,141,12.23,10.47,33.87,20,42.59,44.38,4.83,13.52,3.8,26.3,2.13,35.1a176,176,0,0,1-21.3,60.89c-32.07,55.42-76.12,58.24-122.45,103.21-11.47,11.13-77,74.78-68.15,157.91,9.1,85,89.62,130.34,94.77,133.14,44.16,24,86.9,24.05,105.91,22.94-6.4-3.32-59.18-32.64-65.67-86.18-4.13-34,17.42-63.18,27.49-76.42,42.59-56,94.47-50.05,152.72-81.3,150.1-80.15,230.75-281.15,70.24-382.1-34.8-23.05-61.57-27.79-91.93-48.19-18.09-12.17-28.07-16.85-33.29-28.23-10.67-23.26,6.09-45.08,13.42-72.92C1273.65,1474.14,1275,1437.6,1249.29,1385.87Z" transform="translate(-210.96 -234)"/><path d="M713.59,234c47.48,58.4,191.9,117.51,264.07,109.8L827.87,472.41C773.94,432.82,710.89,300.48,713.59,234Z" transform="translate(-210.96 -234)"/></g></svg>