<svg id="Capa_1" data-name="Capa 1" xmlns="http://www.w3.org/2000/svg" viewBox="0 0 63.8 63.72"><path d="M55.22,55.19C48.42,62,34,67.88,22.27,60.64a10.71,10.71,0,0,0-1.23-.7,2.64,2.64,0,0,0-1.33-.2,7.82,7.82,0,0,0-1.17.25c-3.76,1-5.65,1.47-7,1.19A6,6,0,0,1,6.86,56.5c-.28-1.35.21-3.24,1.18-7a7.18,7.18,0,0,0,.26-1.16A2.67,2.67,0,0,0,8.09,47a8.79,8.79,0,0,0-.7-1.22c-7.26-11.69-1.64-25.86,5.46-33A30,30,0,0,1,55.22,55.19Z" transform="translate(-2.1 -2.14)" fill="none" stroke="#2d264b" stroke-width="3.8"/><path d="M24.22,34a3.63,3.63,0,1,1-3.63-3.63A3.64,3.64,0,0,1,24.22,34Z" transform="translate(-2.1 -2.14)" fill="#2d264b"/><path d="M37.63,34A3.63,3.63,0,1,1,34,30.37,3.64,3.64,0,0,1,37.63,34Z" transform="translate(-2.1 -2.14)" fill="#2d264b"/><path d="M51,34a3.63,3.63,0,1,1-3.63-3.63A3.64,3.64,0,0,1,51,34Z" transform="translate(-2.1 -2.14)" fill="#2d264b"/></svg>