<svg width="35" height="35" viewBox="0 0 35 35" fill="none" xmlns="http://www.w3.org/2000/svg">
<path d="M22.3333 11.6666C22.3333 14.3372 20.1705 16.4999 17.4999 16.4999C14.8293 16.4999 12.6666 14.3372 12.6666 11.6666C12.6666 8.99595 14.8293 6.83325 17.4999 6.83325C20.1705 6.83325 22.3333 8.99595 22.3333 11.6666ZM6.83325 26.2499C6.83325 25.6474 7.12713 25.0457 7.78684 24.4368C8.45334 23.8216 9.42436 23.2691 10.5783 22.8069C12.8878 21.8817 15.6781 21.4166 17.4999 21.4166C19.3218 21.4166 22.112 21.8817 24.4215 22.8069C25.5755 23.2691 26.5465 23.8216 27.213 24.4368C27.8727 25.0457 28.1666 25.6474 28.1666 26.2499C28.1666 26.4333 28.1569 26.4545 28.1333 26.4928C28.1023 26.543 27.9487 26.7509 27.3347 26.9981C26.0697 27.5075 23.323 27.9999 17.4999 27.9999C11.6768 27.9999 8.93014 27.5075 7.66512 26.9981C7.05117 26.7509 6.8975 26.543 6.86656 26.4928C6.84289 26.4545 6.83325 26.4333 6.83325 26.2499Z" stroke="black" stroke-width="2"/>
</svg>
