<svg width="28" height="34" viewBox="0 0 28 34" fill="none" xmlns="http://www.w3.org/2000/svg">
<path d="M20 34C21.1046 34 22 33.1046 22 32C22 30.8954 21.1046 30 20 30V34ZM8 30C6.89543 30 6 30.8954 6 32C6 33.1046 6.89543 34 8 34V30ZM24 11C24 12.1046 24.8954 13 26 13C27.1046 13 28 12.1046 28 11H24ZM0 11C0 12.1046 0.89543 13 2 13C3.10457 13 4 12.1046 4 11H0ZM20 0H14V4H20V0ZM14 0H8V4H14V0ZM20 30H14V34H20V30ZM14 30H8V34H14V30ZM24 8V11H28V8H24ZM0 8V11H4V8H0ZM12 2V32H16V2H12ZM8 0C3.58172 0 0 3.58172 0 8H4C4 5.79086 5.79086 4 8 4V0ZM20 4C22.2091 4 24 5.79086 24 8H28C28 3.58172 24.4183 0 20 0V4Z" fill="white"/>
</svg>
