<svg width="35" height="35" viewBox="0 0 35 35" fill="none" xmlns="http://www.w3.org/2000/svg">
<path d="M23.2 18L24.2 18L23.2 18ZM12.8 18L11.8 18L12.8 18ZM18 12.8L18 11.8L18 12.8ZM15.3098 5.2787L15.1039 4.30013L15.3098 5.2787ZM20.6902 5.2787L20.8961 4.30013L20.6902 5.2787ZM30.0398 22.9124L30.9656 23.2906H30.9656L30.0398 22.9124ZM30.7213 15.3098L31.6999 15.1039L30.7213 15.3098ZM20.6902 30.7213L20.8961 31.6999L20.6902 30.7213ZM15.3098 30.7213L15.1039 31.6999L15.3098 30.7213ZM6.06491 22.8655L5.77466 21.9086L6.06491 22.8655ZM29.9366 22.866L30.2269 21.9091L29.9366 22.866ZM6.88461 22.5311C6.31462 21.1343 6 19.6051 6 18H4C4 19.8687 4.36665 21.6542 5.03287 23.2867L6.88461 22.5311ZM6 18C6 17.1473 6.08879 16.3164 6.25727 15.5157L4.30013 15.1039C4.10332 16.0392 4 17.0081 4 18H6ZM6.25727 15.5157C7.23212 10.8828 10.8828 7.23212 15.5157 6.25727L15.1039 4.30013C9.69511 5.43824 5.43824 9.69512 4.30013 15.1039L6.25727 15.5157ZM15.5157 6.25727C16.3164 6.08879 17.1473 6 18 6L18 4C17.0081 4 16.0392 4.10332 15.1039 4.30013L15.5157 6.25727ZM18 6C18.8527 6 19.6836 6.08879 20.4843 6.25727L20.8961 4.30013C19.9608 4.10332 18.9919 4 18 4L18 6ZM30 18C30 19.6064 29.6849 21.1367 29.114 22.5343L30.9656 23.2906C31.6328 21.657 32 19.8701 32 18H30ZM20.4843 6.25727C25.1172 7.23212 28.7679 10.8828 29.7427 15.5157L31.6999 15.1039C30.5618 9.69511 26.3049 5.43824 20.8961 4.30013L20.4843 6.25727ZM29.7427 15.5157C29.9112 16.3164 30 17.1473 30 18H32C32 17.0081 31.8967 16.0392 31.6999 15.1039L29.7427 15.5157ZM29.114 22.5343C27.6282 26.1722 24.4075 28.9172 20.4843 29.7427L20.8961 31.6999C25.4788 30.7356 29.2327 27.5331 30.9656 23.2906L29.114 22.5343ZM20.4843 29.7427C19.6836 29.9112 18.8527 30 18 30V32C18.9919 32 19.9608 31.8967 20.8961 31.6999L20.4843 29.7427ZM18 30C17.1473 30 16.3164 29.9112 15.5157 29.7427L15.1039 31.6999C16.0392 31.8967 17.0081 32 18 32V30ZM15.5157 29.7427C11.5913 28.917 8.36984 26.1705 6.88461 22.5311L5.03287 23.2867C6.76501 27.5312 10.5198 30.7353 15.1039 31.6999L15.5157 29.7427ZM16.2624 30.4173C15.9038 29.2934 14.5766 24.9714 14.0327 21.0011L12.0512 21.2726C12.6199 25.4241 13.993 29.8841 14.3571 31.0253L16.2624 30.4173ZM14.0327 21.0011C13.8869 19.9372 13.8 18.9159 13.8 18L11.8 18C11.8 19.0342 11.8975 20.1508 12.0512 21.2726L14.0327 21.0011ZM6.35515 23.8225C7.7815 23.3899 10.4602 22.6302 13.2234 22.1202L12.8604 20.1534C9.99185 20.6829 7.2326 21.4664 5.77466 21.9086L6.35515 23.8225ZM13.2234 22.1202C14.8997 21.8108 16.5726 21.6 18 21.6L18 19.6C16.3999 19.6 14.5929 19.8337 12.8604 20.1534L13.2234 22.1202ZM13.8 18C13.8 16.6429 13.9906 15.0629 14.2759 13.4675L12.3071 13.1155C12.0116 14.768 11.8 16.4772 11.8 18L13.8 18ZM14.2759 13.4675C14.9011 9.97056 15.9516 6.55684 16.2624 5.58268L14.3571 4.97472C14.0379 5.97512 12.9557 9.48786 12.3071 13.1155L14.2759 13.4675ZM5.58268 16.2625C6.55683 15.9516 9.97056 14.9011 13.4675 14.2759L13.1155 12.3071C9.48786 12.9557 5.97512 14.0379 4.97472 14.3571L5.58268 16.2625ZM13.4675 14.2759C15.0629 13.9906 16.6429 13.8 18 13.8L18 11.8C16.4772 11.8 14.768 12.0116 13.1155 12.3071L13.4675 14.2759ZM18 13.8C19.3571 13.8 20.9371 13.9906 22.5325 14.2759L22.8845 12.3071C21.232 12.0116 19.5228 11.8 18 11.8L18 13.8ZM22.5325 14.2759C26.0294 14.9011 29.4432 15.9516 30.4173 16.2625L31.0253 14.3571C30.0249 14.0379 26.5121 12.9557 22.8845 12.3071L22.5325 14.2759ZM24.2 18C24.2 16.4772 23.9884 14.768 23.6929 13.1155L21.7241 13.4675C22.0094 15.0629 22.2 16.6429 22.2 18L24.2 18ZM23.6929 13.1155C23.0443 9.48786 21.9621 5.97512 21.6429 4.97472L19.7375 5.58268C20.0484 6.55683 21.0989 9.97056 21.7241 13.4675L23.6929 13.1155ZM21.6429 31.0253C22.007 29.8841 23.3801 25.4241 23.9488 21.2726L21.9673 21.0011C21.4234 24.9714 20.0962 29.2934 19.7375 30.4173L21.6429 31.0253ZM23.9488 21.2726C24.1025 20.1508 24.2 19.0342 24.2 18L22.2 18C22.2 18.9159 22.1131 19.9372 21.9673 21.0011L23.9488 21.2726ZM18 21.6C19.4274 21.6 21.1003 21.8108 22.7766 22.1202L23.1396 20.1534C21.4071 19.8337 19.6001 19.6 18 19.6L18 21.6ZM22.7766 22.1202C25.5408 22.6304 28.2204 23.3904 29.6464 23.823L30.2269 21.9091C28.7694 21.467 26.0092 20.683 23.1396 20.1534L22.7766 22.1202ZM6.41957 23.7964C6.401 23.806 6.37894 23.8153 6.35515 23.8225L5.77466 21.9086C5.67696 21.9382 5.58504 21.9762 5.49791 22.0214L6.41957 23.7964ZM30.5615 22.0593C30.4587 21.9965 30.3471 21.9455 30.2269 21.9091L29.6464 23.823C29.5992 23.8087 29.5557 23.7886 29.5181 23.7656L30.5615 22.0593Z" fill="black"/>
</svg>
